<svg version="1.2" xmlns="http://www.w3.org/2000/svg" viewBox="0 0 2436 2434" width="500" height="500">
	<title>01032317-ai</title>
	<defs>
		<linearGradient id="g1" x2="1" gradientUnits="userSpaceOnUse" gradientTransform="matrix(611.38,-2425.689,2527.659,637.081,-195.264,1960.048)">
			<stop offset="0" stop-color="#0276db"/>
			<stop offset="1" stop-color="#db17b9"/>
		</linearGradient>
		<linearGradient id="g2" x2="1" gradientUnits="userSpaceOnUse" gradientTransform="matrix(829.746,-3106.389,3493.649,933.187,-147.589,2388.8)">
			<stop offset="0" stop-color="#ffffff"/>
			<stop offset="1" stop-color="#fefefe"/>
		</linearGradient>
		<linearGradient id="g3" x2="1" gradientUnits="userSpaceOnUse" gradientTransform="matrix(591.614,-2347.266,3504.94,883.398,805.014,2186.451)">
			<stop offset="0" stop-color="#0276db"/>
			<stop offset="1" stop-color="#db17b9"/>
		</linearGradient>
		<linearGradient id="g4" x2="1" gradientUnits="userSpaceOnUse" gradientTransform="matrix(591.277,-2345.93,3705.315,933.901,908.045,2207.022)">
			<stop offset="0" stop-color="#0276db"/>
			<stop offset="1" stop-color="#db17b9"/>
		</linearGradient>
		<linearGradient id="g5" x2="1" gradientUnits="userSpaceOnUse" gradientTransform="matrix(611.38,-2425.689,2425.728,611.389,974.575,2255.635)">
			<stop offset="0" stop-color="#0276db"/>
			<stop offset="1" stop-color="#db17b9"/>
		</linearGradient>
	</defs>
	<style>
		.s0 { fill: url(#g1) } 
		.s1 { fill: url(#g2) } 
		.s2 { fill: url(#g3) } 
		.s3 { fill: url(#g4) } 
		.s4 { fill: #ffffff } 
		.s5 { fill: url(#g5) } 
		.s6 { fill: #bdc3c7 } 
	</style>
	<g id="_Artboards_">
	</g>
	<g id="Layer 1">
		<g id="&lt;Clip Group&gt;">
			<path id="&lt;Path&gt;" fill-rule="evenodd" class="s0" d="m511.9 1666.4q-11.8 1.8-23.7 2.1c-34.4 1-69-7-100.2-24.2-31.2-17.2-56.5-42.3-74-71.9-15-25.3-24.2-54.1-26.6-84.3-22.4-10.2-42.1-25.2-57.7-43.6-18.9-22.2-31.9-49.3-37.1-78.9-5.2-29.6-2.1-59.5 8.2-86.8 7.8-20.9 19.9-40.2 35.7-56.6-11.8-18.6-20.6-38.9-26.2-60-7.2-27.6-8.8-56.7-4.5-85.3 4.4-28.8 14.6-56.1 29.8-80.3 11.5-18.5 26-35.2 42.9-49.5-10.6-22-15.8-45.8-15.6-69.6 0.4-30.5 9.6-60.9 27.7-87.1 18.1-26.2 43.3-45.6 71.7-56.6 15.4-6.1 31.9-9.6 48.6-10.5-6.6-19.1-9.2-39.2-7.9-59.1 2.1-33.6 15.5-66.5 39.6-92.8 24.2-26.2 55.9-42.3 89.2-47.2 22.5-3.4 45.7-1.7 67.9 5.4 3.1-18.8 9.2-36.8 17.9-53.4 13.9-26.3 34.5-49 60.5-65.6 26-16.6 55.3-25.8 85-27.3 21.5-1.2 43.2 1.7 64 8.6 7.4-17.9 18-34.1 31.1-48 18.7-20 42.5-35.2 69.4-43.7 27-8.4 55.2-9.5 81.9-3.8 14.5 3 28.6 8.1 41.8 15.1 13.1-54.8 48.1-92 90.6-111.4 22.9-10.5 47.7-15.7 72.4-15.7 24.8 0 49.6 5.2 72.5 15.7 42.5 19.4 77.5 56.6 90.5 111.4 13.3-7 27.4-12.1 41.9-15.1 26.7-5.7 54.9-4.6 81.9 3.8 26.9 8.5 50.7 23.7 69.4 43.7 13.1 13.9 23.6 30.1 31.1 48 20.8-6.9 42.5-9.8 64-8.6 29.7 1.5 59 10.7 85 27.3 25.9 16.6 46.6 39.3 60.5 65.6 8.7 16.6 14.8 34.6 17.9 53.4 22.2-7.1 45.4-8.8 67.9-5.4 33.3 4.9 65 21 89.2 47.2 24.1 26.3 37.5 59.2 39.6 92.8 1.3 19.9-1.3 40-7.9 59.1 16.7 0.9 33.1 4.4 48.6 10.5 28.4 11 53.6 30.4 71.7 56.6 18.1 26.2 27.3 56.6 27.6 87.1 0.3 23.8-4.9 47.6-15.5 69.6 16.9 14.3 31.4 31 42.9 49.5 15.2 24.2 25.4 51.5 29.8 80.3 4.3 28.6 2.7 57.7-4.6 85.3-5.5 21.1-14.3 41.4-26.1 60 15.8 16.4 27.9 35.7 35.7 56.6 10.3 27.3 13.4 57.2 8.2 86.8-5.2 29.6-18.2 56.7-37.1 78.9-15.7 18.4-35.3 33.4-57.7 43.6-2.4 30.2-11.6 59-26.6 84.3-17.5 29.6-42.8 54.7-74.1 71.9-31.1 17.2-65.7 25.2-100.1 24.2q-11.1-0.3-22.1-1.8c-51.2 148.1-150.1 281.6-271.3 368.9-123.3 88.8-273.6 139.7-432.8 139.7-159.1 0-309.4-50.9-432.7-139.7-121.2-87.3-218.6-220.9-269.7-369.2zm1260.7 138.6c-7 2.7-14.2 5-21.5 6.8-18.3 4.5-37.4 6-56.4 4.4-2.1 20.9-8.4 41.1-18.3 59.4-14.2 26.1-35.8 48.1-63.1 62.8-27.2 14.7-57.5 20.6-87.1 18.1-20.1-1.7-40-7.3-58.3-16.8-8.9 18.2-21.1 34.3-35.8 47.7-21.8 19.8-49 33.5-79.1 38.9-30 5.3-60.2 1.8-87.4-9.2-18.9-7.7-36.4-19.1-51.3-33.6-14.8 14.5-32.3 25.9-51.2 33.6-27.2 11-57.4 14.5-87.4 9.2-30.1-5.4-57.3-19.1-79.1-38.9-14.7-13.4-26.9-29.5-35.8-47.7-18.3 9.5-38.2 15.1-58.3 16.8-29.6 2.5-59.9-3.4-87.2-18.1-27.2-14.7-48.8-36.7-63-62.8-10-18.3-16.3-38.5-18.3-59.4-19 1.6-38.1 0.1-56.4-4.4-7.3-1.8-14.5-4.1-21.5-6.8 45 67.8 101.7 126.4 166.8 173.3 111.3 80.1 247.3 126.2 391.4 126.2 144.2 0 280.2-46.1 391.5-126.2 65.1-46.9 121.8-105.5 166.8-173.3z"/>
		</g>
		<g id="&lt;Clip Group&gt;">
			<path id="&lt;Path&gt;" class="s1" d="m1870.4 1604.2l2.2 1.3c21.5 11.9 45.2 18.2 69.1 18.9 26.6 0.8 53.4-5.5 77.7-18.9 24.1-13.3 43.7-32.6 57.2-55.6 13.6-23 21.1-49.5 21.1-77 0-9.9 6.6-18.2 15.5-21.1 20.6-7.2 38.5-19.7 52.2-35.8 13.8-16.2 23.3-36.1 27.1-57.9 3.8-21.8 1.5-43.8-5.9-63.7-7.5-20-20.3-38-37.5-51.8-9.5-7.7-11-21.6-3.3-31.1l0.4-0.5c13.9-18 23.8-38.4 29.4-59.8 5.7-21.8 7-44.8 3.5-67.7-3.5-22.8-11.6-44.4-23.5-63.5-12-19.2-27.8-35.9-46.7-48.9-9.9-6.9-12.5-20.4-5.9-30.4 12.6-19.1 18.8-41 18.6-62.8-0.2-21.8-6.8-43.6-19.8-62.4-13-18.8-31-32.7-51.3-40.6-20.4-7.9-43.1-9.9-65.4-4.8-11.9 2.7-23.7-4.8-26.4-16.7-1.4-6.3 0-12.6 3.5-17.6 14.5-20.6 20.9-45 19.4-68.8-1.5-23.8-11-47-28.1-65.6-17-18.6-39.4-30-63-33.5-23.7-3.5-48.5 0.8-70.2 13.6-10.5 6.2-24.1 2.6-30.2-7.9-2.2-3.7-3.2-7.8-3-11.7 0.6-23-4.7-45.4-15.2-65.1-10.4-19.7-25.7-36.7-45.1-49-19.3-12.4-41.2-19.2-63.5-20.4-22.2-1.2-44.8 3.3-65.3 13.6-10.9 5.4-24.1 1-29.6-9.9q-1.1-2.3-1.7-4.7c-4.9-19.9-14.8-37.8-28.4-52.3-13.5-14.5-30.8-25.5-50.4-31.7-19.6-6.1-40.1-6.9-59.5-2.8-19.5 4.2-37.9 13.2-53.2 26.7-9.2 8.1-23.1 7.3-31.2-1.9-3.4-3.9-5.3-8.6-5.5-13.5-3-56.7-32.5-93.5-70.1-110.7-16.7-7.6-35.3-11.5-54.1-11.5-18.7 0-37.3 3.9-54 11.5-37.7 17.2-67.1 54-70.1 110.7-0.6 12.2-11 21.6-23.2 21-5.5-0.3-10.4-2.6-14.1-6.1-15.2-13.3-33.4-22.1-52.6-26.2-19.4-4.1-39.9-3.3-59.5 2.8-19.6 6.2-36.9 17.2-50.5 31.7-13.5 14.5-23.4 32.4-28.3 52.3-2.9 11.9-14.8 19.2-26.7 16.3q-2.9-0.7-5.5-2.2c-20.3-9.9-42.5-14.3-64.5-13.1-22.2 1.2-44.1 8-63.5 20.4-19.3 12.3-34.7 29.3-45.1 49-10.4 19.7-15.8 42.1-15.1 65.1 0.4 12.1-9.2 22.3-21.4 22.6-4.4 0.1-8.6-1-12.1-3.2-21.7-12.6-46.4-16.9-69.9-13.4-23.6 3.5-46 14.9-63.1 33.5-17 18.6-26.5 41.8-28 65.6-1.5 23.8 4.8 48.2 19.4 68.8 7.1 10 4.7 23.8-5.3 30.8-5.6 4-12.4 4.9-18.5 3.3-22-4.8-44.4-2.8-64.5 5-20.3 7.9-38.3 21.8-51.3 40.6-13 18.8-19.6 40.6-19.8 62.4-0.2 21.8 5.9 43.7 18.6 62.8 6.7 10.2 3.9 23.9-6.3 30.6l-0.3 0.3c-18.6 13-34.2 29.5-46 48.4-11.9 19.1-20 40.7-23.5 63.5-3.5 22.9-2.2 45.9 3.5 67.7 5.7 21.8 15.8 42.4 30 60.6 7.4 9.5 5.8 23.2-3.6 30.8-17.1 13.8-29.9 31.8-37.4 51.8-7.5 19.9-9.7 41.9-5.9 63.7 3.8 21.8 13.3 41.7 27.1 57.9 13.8 16.2 31.9 28.8 52.8 36.1 9.1 3.1 14.8 11.7 14.8 20.8 0.1 27.5 7.6 54 21.2 77 13.5 23 33.1 42.3 57.2 55.6 24.3 13.4 51.1 19.7 77.7 18.9 23.9-0.7 47.6-7 69.1-18.9l7.3-4.3c23.4-14.7 41.8-35.2 54-58.9 12.2-23.7 18.2-50.6 16.7-78.1-0.4-7.4 2.8-14.1 8.1-18.4 16.4-14.3 29-32.2 37-51.9 8.1-20 11.5-41.8 9.5-63.7-2-21.9-9.2-42.7-20.8-60.9-11.5-18.3-27.3-33.7-46.2-44.8-10.5-6.2-14-19.7-7.9-30.2 1.2-2 2.6-3.7 4.2-5.2 12.3-11.3 21.4-25.2 26.8-40.4 5.5-15.3 7.2-32 4.7-48.6-2.4-16.5-8.9-31.9-18.5-44.8-9.6-13-22.4-23.7-37.6-30.9-11-5.3-15.7-18.5-10.4-29.5 5.2-11.1 18.4-15.7 29.5-10.5 21.6 10.3 40.1 25.8 54 44.6 13.9 18.8 23.3 41 26.8 64.7 3.6 23.8 1 47.7-6.8 69.7-4.8 13.6-11.7 26.5-20.5 38.2 15.6 12.5 28.8 27.4 39.3 43.9 15.2 24 24.7 51.5 27.3 80.7 2.7 29.2-1.8 58-12.4 84.3-9.3 23-23.4 44.2-41.7 61.9 0.1 31.8-7.6 62.7-21.8 90.2-15.4 29.8-38.4 55.6-67.5 74.5-0.7 17.8 2.2 35.3 8.3 51.6 7.4 19.4 19.4 37.1 35.4 51.2 16 14.2 35 24 55.3 28.9 19.8 4.9 40.8 5.1 61.2 0.2 2.6-0.7 5.3-1 8.1-0.8 12.2 0.9 21.3 11.6 20.4 23.8-1.8 22.2 3 43.8 13.1 62.4 10.2 18.7 25.7 34.5 45.3 45.1 19.5 10.5 41.2 14.7 62.5 12.9 21-1.8 41.5-9.4 58.7-22.7 2.4-2 5.2-3.6 8.4-4.5 11.8-3.2 23.9 3.7 27.2 15.5 5.8 21.1 17.6 39.7 33.3 54 15.6 14.2 35.2 24.1 56.9 28 21.7 3.8 43.6 1.3 63.2-6.6 19.6-8 37-21.3 49.8-39 1.4-2 3.1-3.8 5.2-5.3 9.8-7.1 23.6-4.8 30.8 5 12.8 17.9 30.2 31.3 49.9 39.3 19.6 7.9 41.5 10.4 63.2 6.6 21.7-3.9 41.3-13.8 56.9-28 15.7-14.3 27.4-32.9 33.3-54 0.8-2.8 2.1-5.4 3.9-7.8 7.5-9.6 21.4-11.3 31-3.8 17.4 13.7 38.1 21.5 59.4 23.3 21.2 1.8 43-2.4 62.5-12.9 19.6-10.6 35.1-26.4 45.3-45.1 10.1-18.6 14.9-40.2 13.1-62.4-0.1-2.3 0-4.7 0.6-7 2.9-11.9 14.9-19.1 26.8-16.2 20.7 5.1 42.1 5 62.3 0 20.2-4.9 39.3-14.7 55.3-28.9 16-14.1 28-31.8 35.3-51.2 6.2-16.3 9.1-33.8 8.4-51.6-29.1-18.9-52.1-44.7-67.5-74.5-14.2-27.5-21.9-58.4-21.8-90.2-18.3-17.7-32.4-38.9-41.7-61.9-10.6-26.3-15.1-55.1-12.5-84.3 2.7-29.2 12.2-56.7 27.4-80.7 10.5-16.5 23.7-31.4 39.2-43.9-8.7-11.7-15.6-24.6-20.4-38.2-7.9-22-10.4-45.9-6.8-69.7 3.5-23.7 12.9-45.9 26.8-64.7 13.9-18.8 32.4-34.3 54-44.6 11.1-5.2 24.3-0.6 29.5 10.5 5.3 11 0.6 24.2-10.4 29.5-15.2 7.2-28 17.9-37.6 30.9-9.6 12.9-16.1 28.3-18.5 44.8-2.5 16.6-0.8 33.3 4.7 48.6 5.4 15.2 14.5 29.1 26.8 40.4 9 8.2 9.7 22.2 1.5 31.2-1.9 2.1-4 3.7-6.4 4.8-18.4 11.1-33.7 26.3-45 44.2-11.6 18.2-18.8 39-20.8 60.9-2 21.9 1.4 43.7 9.5 63.7 8.1 19.9 20.8 38 37.5 52.3 5.4 4.7 8 11.4 7.6 18-1.5 27.5 4.5 54.4 16.7 78.1 12.2 23.7 30.6 44.2 54 58.9z"/>
		</g>
		<g id="&lt;Clip Group&gt;">
			<path id="&lt;Path&gt;" class="s2" d="m1670.6 1534.6c-8.4 8.9-22.4 9.2-31.2 0.8-8.9-8.4-9.2-22.4-0.8-31.2 14.7-15.4 22.7-34.9 23.8-54.9 1.1-19.9-4.6-40.2-17.5-57.2-12.8-16.9-30.8-28-50.3-32.3-19.4-4.3-40.4-1.9-59.3 8.1-10.8 5.6-24.1 1.5-29.8-9.3-1.8-3.4-2.6-7.1-2.6-10.6-0.8-18.7-6.7-36.4-16.6-51.6-10.1-15.4-24.3-28.1-41.5-36.2-17.3-8.2-36.2-11.3-54.5-9.4-18.3 1.9-36 8.8-51.2 20.4-9.7 7.4-23.6 5.5-31-4.2-2.1-2.8-3.5-5.9-4.1-9.1-4.9-18.7-18.9-33-36.9-42.3-16.1-8.3-35.1-12.7-54.1-12.9-18.9-0.2-37.6 3.7-53.2 12-17.1 9.1-30.3 23.7-35.3 44.1-2.9 11.8-14.8 19.1-26.7 16.3-3-0.8-5.8-2.1-8.2-4-15.2-11.5-32.9-18.4-51.2-20.3-18.3-1.9-37.2 1.2-54.5 9.4-17.2 8.1-31.4 20.8-41.5 36.2-10.1 15.5-16.1 33.6-16.7 52.6-0.4 12.2-10.6 21.7-22.7 21.4-3.5-0.2-6.8-1-9.6-2.6-18.9-9.9-39.9-12.3-59.4-8-19.4 4.3-37.4 15.4-50.2 32.3-12.9 17-18.6 37.3-17.5 57.2 1.1 20 9.1 39.5 23.8 54.9 8.4 8.8 8 22.8-0.8 31.2-8.8 8.4-22.8 8.1-31.2-0.8-22.1-23.2-34.2-52.7-35.9-82.8-1.7-30.1 6.9-60.8 26.3-86.4 15.9-21 37.3-36.1 60.9-44.4q-0.6-0.1-0.6-0.1c-45.1-54.6-49-132.3-9.5-191.1 39.4-58.8 112.8-84.6 180.4-63.6 67.6 21.1 113.3 84 112.4 154.8 10.9-20 27.4-35 46.9-45.4 22.2-11.7 48.3-17.3 74.3-17 25.9 0.3 51.9 6.3 74 17.7 20.4 10.5 37.6 25.5 48.9 44.9-0.9-70.8 44.8-133.8 112.4-154.8 67.6-21 141 4.8 180.4 63.6 39.5 58.8 35.6 136.5-9.5 191.1 23.5 8.3 44.8 23.3 60.7 44.3 19.3 25.6 28 56.3 26.3 86.4-1.7 30.1-13.8 59.6-35.9 82.8z"/>
		</g>
		<g id="&lt;Clip Group&gt;">
			<path id="&lt;Path&gt;" class="s3" d="m1214.3 1344.9c79 0 142.9 37.2 142.9 83.1 0 32.3-31.7 60.3-78.1 74.1 0.8 53.2 36.3 99.6 87.5 114.3 51.2 14.7 105.9-5.8 134.8-50.5-26.8 65.8-96.2 103.5-166 90.2-69.7-13.3-120.4-74-121.1-145-0.6 71-51.3 131.7-121 145-69.8 13.3-139.2-24.4-166-90.2 28.9 44.7 83.6 65.2 134.8 50.5 51.1-14.7 86.7-61.1 87.5-114.3-46.4-13.8-78.1-41.8-78.1-74.1 0-45.9 63.9-83.1 142.8-83.1z"/>
		</g>
		<path id="&lt;Path&gt;" class="s4" d="m1214.3 2018.9c75 0 135.8 60.8 135.8 135.8 0 74.9-60.8 135.7-135.8 135.7-74.9 0-135.7-60.8-135.7-135.7 0-75 60.8-135.8 135.7-135.8z"/>
		<g id="&lt;Clip Group&gt;">
			<path id="&lt;Path&gt;" fill-rule="evenodd" class="s5" d="m1214.3 1983.5c47.3 0 90.1 19.1 121.1 50.1 31 31 50.1 73.8 50.1 121.1 0 47.2-19.1 90-50.1 121-31 31-73.8 50.1-121.1 50.1-47.2 0-90-19.1-121-50.1-31-31-50.1-73.8-50.1-121 0-47.3 19.1-90.1 50.1-121.1 31-31 73.8-50.1 121-50.1zm71 100.2c-18.2-18.1-43.3-29.3-71-29.3-27.7 0-52.7 11.2-70.9 29.3-18.1 18.2-29.3 43.3-29.3 71 0 27.7 11.2 52.7 29.3 70.9 18.2 18.1 43.2 29.3 70.9 29.3 27.7 0 52.8-11.2 71-29.3 18.1-18.2 29.3-43.2 29.3-70.9 0-27.7-11.2-52.8-29.3-71z"/>
		</g>
		<path id="&lt;Path&gt;" class="s4" d="m996.6 1987.4c-14.7-13.4-26.9-29.5-35.8-47.7-18.3 9.5-38.2 15.1-58.3 16.8-29.6 2.5-59.9-3.4-87.2-18.1-27.2-14.7-48.8-36.7-63-62.8-10-18.3-16.3-38.5-18.3-59.4-19 1.6-38.1 0.1-56.4-4.4-7.3-1.8-14.5-4.1-21.5-6.8 45 67.8 101.7 126.4 166.8 173.3 69.8 50.3 149.4 87.2 234.6 107.6 8.6-19.6 20.9-37.3 35.8-52.3q2.5-2.5 5.2-4.9c-7.6-0.3-15.2-1.1-22.8-2.4-30.1-5.4-57.3-19.1-79.1-38.9z"/>
		<path id="&lt;Path&gt;" class="s6" d="m996.6 1987.4c-14.7-13.4-26.9-29.5-35.8-47.7-18.3 9.5-38.2 15.1-58.3 16.8-29.6 2.5-59.9-3.4-87.2-18.1-27.2-14.7-48.8-36.7-63-62.8-10-18.3-16.3-38.5-18.3-59.4-19 1.6-38.1 0.1-56.4-4.4-7.3-1.8-14.5-4.1-21.5-6.8 103.6 133.7 250.7 224.5 413.3 258.5 6.8-10.8 14.9-20.9 23.9-29.9q2.5-2.5 5.2-4.9c-7.6-0.3-15.2-1.1-22.8-2.4-30.1-5.4-57.3-19.1-79.1-38.9z"/>
		<path id="&lt;Path&gt;" class="s4" d="m1432.1 1987.4c-21.8 19.8-49 33.5-79.1 38.9-7.6 1.3-15.2 2.1-22.8 2.4q2.6 2.4 5.2 4.9c14.9 15 27.1 32.7 35.8 52.3 85.2-20.4 164.8-57.3 234.6-107.6 65.1-46.9 121.8-105.5 166.8-173.3-7 2.7-14.2 5-21.5 6.8-18.3 4.5-37.4 6-56.4 4.4-2.1 20.9-8.4 41.1-18.3 59.4-14.2 26.1-35.8 48.1-63.1 62.8-27.2 14.7-57.5 20.6-87.1 18.1-20.1-1.7-40-7.3-58.3-16.8-8.9 18.2-21.1 34.3-35.8 47.7z"/>
		<path id="&lt;Path&gt;" class="s6" d="m1432.1 1987.4c-21.8 19.8-49 33.5-79.1 38.9-7.6 1.3-15.2 2.1-22.8 2.4q2.6 2.4 5.2 4.9c9 9 17 19.1 23.9 29.9 162.6-34 309.6-124.8 413.3-258.5-7 2.7-14.2 5-21.5 6.8-18.3 4.5-37.4 6-56.4 4.4-2.1 20.9-8.4 41.1-18.3 59.4-14.2 26.1-35.8 48.1-63.1 62.8-27.2 14.7-57.5 20.6-87.1 18.1-20.1-1.7-40-7.3-58.3-16.8-8.9 18.2-21.1 34.3-35.8 47.7z"/>
		<path id="&lt;Path&gt;" class="s6" d="m1115 2168.7c-5.1-36.4 10-72.7 39.5-94.6 29.5-21.9 68.6-26 102-10.5 33.3 15.4 55.5 47.8 57.9 84.5-15.2-45.6-60.1-74.5-107.9-69.6-47.8 5-85.8 42.4-91.5 90.2z"/>
		<path id="&lt;Path&gt;" class="s6" d="m1282.2 1893c-19.7-8-37.1-21.4-49.9-39.2-7.2-9.9-21-12.2-30.8-5-2.1 1.4-3.8 3.2-5.2 5.2-12.8 17.7-30.2 31-49.8 39-19.6 7.9-41.5 10.5-63.2 6.6-21.7-3.9-41.3-13.8-56.9-28-15.7-14.3-27.5-32.8-33.3-54-3.3-11.8-15.4-18.7-27.2-15.4-3.2 0.9-6 2.4-8.4 4.4-17.2 13.3-37.7 21-58.7 22.7-21.3 1.8-43-2.4-62.5-12.9-19.6-10.5-35.1-26.3-45.3-45-10.1-18.7-14.9-40.3-13.1-62.5 0.9-12.2-8.2-22.8-20.4-23.8-2.8-0.2-5.5 0.1-8.1 0.9-20.4 4.8-41.4 4.6-61.2-0.2-13.5-3.4-26.4-8.8-38.2-16.2 53.2-40.1 85-104.3 82.7-173.2-6.1-14.2-9.7-29.4-10.5-44.6-1.7-30.1 6.9-60.8 26.3-86.4 10.5-13.9 23.4-25.2 37.7-33.6-4.9-49.4-26.9-97.2-65.5-134 14.5-42.6 11.2-89.3-9.2-129.5-20.3-40.2-56.1-70.4-99-83.9 21.6 10.3 40.1 25.8 54 44.6 13.9 18.8 23.3 41 26.8 64.7 3.6 23.8 1 47.7-6.8 69.7-4.8 13.6-11.7 26.5-20.5 38.2 15.6 12.5 28.8 27.4 39.3 43.9 15.2 24 24.7 51.5 27.3 80.7 2.7 29.2-1.8 58-12.4 84.3-9.3 23-23.4 44.2-41.7 61.9 0.1 31.8-7.6 62.7-21.8 90.2-12.2 23.6-29.2 44.7-50.2 61.9q-8.2 6.7-17.3 12.6c-0.7 17.8 2.2 35.3 8.3 51.6 7.4 19.4 19.4 37.1 35.4 51.2 16 14.2 35 24 55.3 28.9 19.8 4.9 40.8 5.1 61.2 0.2 2.6-0.7 5.3-1 8.1-0.8 12.2 0.9 21.3 11.6 20.4 23.8-1.8 22.2 3 43.8 13.1 62.4 10.2 18.7 25.7 34.5 45.3 45.1 19.5 10.5 41.2 14.7 62.5 12.9 21-1.8 41.5-9.4 58.7-22.7 2.4-2 5.2-3.6 8.4-4.5 11.8-3.2 23.9 3.7 27.2 15.5 5.8 21.1 17.6 39.7 33.3 54 15.6 14.2 35.2 24.1 56.9 28 21.7 3.8 43.6 1.3 63.2-6.6 19.6-8 37-21.3 49.8-39 1.4-2 3.1-3.8 5.2-5.3 9.8-7.1 23.6-4.8 30.8 5 12.8 17.9 30.2 31.3 49.9 39.3 19.6 7.9 41.5 10.4 63.2 6.6 21.7-3.9 41.3-13.8 56.9-28 15.7-14.3 27.4-32.9 33.3-54 0.8-2.8 2.1-5.4 3.9-7.8 7.5-9.6 21.4-11.3 31-3.8 17.4 13.7 38.1 21.5 59.4 23.3 21.2 1.8 43-2.4 62.5-12.9 19.6-10.6 35.1-26.4 45.3-45.1 10.1-18.6 14.9-40.2 13.1-62.4-0.1-2.3 0-4.7 0.6-7 2.9-11.9 14.9-19.1 26.8-16.2 20.7 5.1 42.1 5 62.3 0 20.2-4.9 39.3-14.7 55.3-28.9 16-14.1 28-31.8 35.3-51.2 6.2-16.3 9.1-33.8 8.4-51.6q-9.1-5.9-17.3-12.6c-21-17.2-38-38.3-50.2-61.9-14.2-27.5-21.9-58.4-21.8-90.2-18.3-17.7-32.4-38.9-41.7-61.9-10.6-26.3-15.1-55.1-12.5-84.3 2.7-29.2 12.2-56.7 27.4-80.7 10.5-16.5 23.7-31.4 39.2-43.9-8.7-11.7-15.6-24.6-20.4-38.2-7.9-22-10.4-45.9-6.8-69.7 3.5-23.7 12.9-45.9 26.8-64.7 13.9-18.8 32.4-34.3 54-44.6-43 13.5-78.7 43.7-99 83.9-20.4 40.2-23.7 86.9-9.2 129.5-38.6 36.8-60.6 84.6-65.5 134 14.3 8.4 27.2 19.7 37.7 33.6 19.3 25.6 28 56.3 26.3 86.4-0.9 15.2-4.4 30.4-10.5 44.6-2.3 68.9 29.5 133.1 82.7 173.2-11.8 7.4-24.7 12.8-38.2 16.2-20.2 4.9-41.6 5.1-62.3-0.1-11.9-2.9-23.9 4.3-26.8 16.2-0.6 2.3-0.7 4.7-0.6 7 1.8 22.2-3 43.8-13.1 62.5-10.2 18.7-25.7 34.5-45.3 45-19.5 10.5-41.3 14.7-62.5 12.9-21.3-1.8-42-9.6-59.4-23.2-9.6-7.5-23.5-5.8-31 3.8-1.8 2.3-3.1 5-3.9 7.7-5.9 21.2-17.6 39.7-33.3 54-15.6 14.2-35.2 24.1-56.9 28-21.7 3.9-43.6 1.3-63.2-6.6z"/>
	</g>
</svg>